# xmcd CD database file
#
# Track frame offsets:
#	150
#	18987
#	32030
#	49187
#	68472
#	83440
#	96465
#	113622
#	124735
#	137517
#	153532
#	163405
#	180372
#
# Disc length: 2493 seconds
#
# Revision: 0
# Processed by: cddbd v1.4PL0 Copyright (c) Steve Scherf et al.
# Submitted via: CDex 1.50
#
DISCID=9e09bb0d
DTITLE=ANDITO - ANDANDO
DYEAR=2000
DGENRE=Salsa
TTITLE0=ANDITO ANANDO
TTITLE1=EL ICUI CUI ICUI
TTITLE2=CARAMELO RON Y MELAO
TTITLE3=OCHO REALIDADES
TTITLE4=PROVOCANDO
TTITLE5=LA ESCALERA NO SE CAE
TTITLE6=AYRABIOSA
TTITLE7=DESPUES QUE ME AMASTE
TTITLE8=NO TE PONGAS BRAVA
TTITLE9=ESA BROMA NO LA AGUANTO MAS
TTITLE10=ANTE LA VIDA
TTITLE11=DEJALA QUE BAILE COMPADRE 
TTITLE12=EL ICUI CUI ICUI (FINAL)
EXTD=YEAR: 2000
EXTT0=
EXTT1=
EXTT2=
EXTT3=
EXTT4=
EXTT5=
EXTT6=
EXTT7=
EXTT8=
EXTT9=
EXTT10=
EXTT11=
EXTT12=
PLAYORDER=
